<?xml version="1.0" encoding="UTF-8" standalone="no"?>
<!DOCTYPE svg PUBLIC "-//W3C//DTD SVG 1.1//EN" "http://www.w3.org/Graphics/SVG/1.1/DTD/svg11.dtd">
<svg width="100%" height="100%" viewBox="0 0 901 1324" version="1.1" xmlns="http://www.w3.org/2000/svg" xmlns:xlink="http://www.w3.org/1999/xlink" xml:space="preserve" xmlns:serif="http://www.serif.com/" style="fill-rule:evenodd;clip-rule:evenodd;stroke-linejoin:round;stroke-miterlimit:2;">
    <g transform="matrix(7.14298,0,0,7.14298,41.6667,26.4587)">
        <path d="M15.918,175.719L98.535,175.719C108.398,175.719 114.453,170.152 114.453,159.703L114.453,157.75C114.453,134.215 89.551,111.15 75.879,97.576C69.238,90.936 69.727,87.971 75.879,81.818C89.551,68.342 114.453,43.633 114.453,19.902L114.453,18.242C114.453,7.793 108.398,2.129 98.535,2.129L15.918,2.129C6.055,2.129 0,7.793 0,18.242L0,19.902C0,43.633 25,68.342 38.574,81.818C44.824,87.971 45.312,90.936 38.574,97.576C25,111.15 0,134.215 0,157.75L0,159.703C0,170.152 6.055,175.719 15.918,175.719Z" style="fill:white;stroke:black;stroke-width:11.67px;"/>
    </g>
    <g transform="matrix(6.43375,0,0,6.43375,82.2533,90.1438)">
        <path d="M23.437,168.174C19.238,168.174 18.262,163.291 21.094,160.654L52.246,130.967C53.418,129.892 53.906,129.404 53.906,127.842L53.906,82.715C53.906,78.223 53.027,75.977 49.707,73.144C43.164,67.578 33.984,57.421 27.93,51.074C25.391,48.535 26.758,45.41 29.785,45.41L84.668,45.41C87.695,45.41 89.063,48.535 86.523,51.074C80.566,57.421 71.387,67.578 64.746,73.144C61.426,75.977 60.644,78.223 60.644,82.715L60.644,127.842C60.644,129.404 61.035,129.892 62.207,130.967L93.359,160.654C96.191,163.291 95.215,168.174 91.016,168.174L23.437,168.174Z"/>
    </g>
</svg>
