<?xml version="1.0" encoding="UTF-8" standalone="no"?>
<!DOCTYPE svg PUBLIC "-//W3C//DTD SVG 1.1//EN" "http://www.w3.org/Graphics/SVG/1.1/DTD/svg11.dtd">
<svg width="100%" height="100%" viewBox="0 0 901 1324" version="1.1" xmlns="http://www.w3.org/2000/svg" xmlns:xlink="http://www.w3.org/1999/xlink" xml:space="preserve" xmlns:serif="http://www.serif.com/" style="fill-rule:evenodd;clip-rule:evenodd;stroke-linejoin:round;stroke-miterlimit:2;">
    <g transform="matrix(7.14298,0,0,7.14298,41.6667,26.4587)">
        <path d="M15.918,175.719L98.535,175.719C108.398,175.719 114.453,170.152 114.453,159.703L114.453,157.75C114.453,134.215 89.551,111.15 75.879,97.576C69.238,90.936 69.727,87.971 75.879,81.818C89.551,68.342 114.453,43.633 114.453,19.902L114.453,18.242C114.453,7.793 108.398,2.129 98.535,2.129L15.918,2.129C6.055,2.129 0,7.793 0,18.242L0,19.902C0,43.633 25,68.342 38.574,81.818C44.824,87.971 45.312,90.936 38.574,97.576C25,111.15 0,134.215 0,157.75L0,159.703C0,170.152 6.055,175.719 15.918,175.719Z" style="fill:white;stroke:black;stroke-width:11.67px;"/>
    </g>
    <g transform="matrix(1,0,0,1,-128.332,-3351.65)">
        <path d="M546.723,4284.4C574.338,4256.78 583.194,4256.78 610.809,4284.4L811.236,4475.4C829.456,4492.36 823.173,4523.78 796.156,4523.78L361.376,4523.78C334.359,4523.78 328.076,4492.36 346.297,4475.4L546.723,4284.4ZM627.145,3912.38C583.846,3955.68 573.686,3955.68 530.387,3912.38C530.387,3912.38 429.232,3811.22 390.278,3770.39C373.942,3754.05 382.738,3733.95 402.215,3733.95L755.317,3733.95C774.794,3733.95 783.591,3754.05 767.255,3770.39C728.929,3811.22 669.869,3876.57 627.145,3912.38Z"/>
    </g>
</svg>
