<?xml version="1.0" encoding="UTF-8" standalone="no"?>
<!DOCTYPE svg PUBLIC "-//W3C//DTD SVG 1.1//EN" "http://www.w3.org/Graphics/SVG/1.1/DTD/svg11.dtd">
<svg width="100%" height="100%" viewBox="0 0 1117 1271" version="1.1" xmlns="http://www.w3.org/2000/svg" xmlns:xlink="http://www.w3.org/1999/xlink" xml:space="preserve" xmlns:serif="http://www.serif.com/" style="fill-rule:evenodd;clip-rule:evenodd;stroke-linejoin:round;stroke-miterlimit:2;">
    <g transform="matrix(1,0,0,1,-177.508,-230.089)">
        <g transform="matrix(1.03847,0,0,1.03847,-514.172,-353.975)">
            <path d="M1047.31,1785.52C992.212,1781.22 959.742,1747.37 956.091,1675.88C949.03,1612.17 905.849,1580.87 825.8,1582.66C775.394,1555.17 751.87,1500.29 742.87,1431.07C550.364,887.165 725.569,562.465 1202.5,562.465L1202.5,562.427L1203.05,562.465C1681.02,562.465 1856.72,887.165 1664.22,1431.07C1656.01,1491.91 1627.13,1536.95 1581.29,1582.66C1501.24,1580.87 1458.06,1612.17 1451,1675.88C1447.34,1747.37 1414.88,1781.22 1359.78,1785.52L1047.31,1785.52Z" style="fill:white;"/>
        </g>
        <g transform="matrix(1,0,0,1,-467.87,-308.23)">
            <path d="M1203.62,1593.54C1185.73,1651.71 1150.38,1646.12 1135.04,1621.15C1120.67,1597.75 1119.06,1557.33 1139.82,1515.94C1154.35,1484.89 1176.83,1407.83 1203.62,1407.92C1238.36,1408.04 1248.71,1474.32 1263.24,1505.36C1283.99,1546.76 1290.12,1600.12 1272.51,1622.62C1254.44,1645.7 1222.92,1653.78 1203.62,1593.54ZM956.809,1151.68C1039.08,1149.34 1103.05,1199.65 1103.05,1281.95C1103.05,1364.25 1018.03,1412.36 961.913,1412.79C821.865,1413.87 804.803,1364.25 804.803,1281.95C804.803,1199.65 827.808,1155.36 956.809,1151.68ZM1450.65,1157.38C1566.14,1161.05 1600.12,1199.65 1600.12,1281.95C1600.12,1364.25 1606.98,1412.68 1456.45,1411.63C1397.35,1411.21 1301.87,1364.25 1301.87,1281.95C1301.87,1199.65 1368.39,1154.77 1450.65,1157.38Z"/>
        </g>
    </g>
</svg>
